<svg width="32" height="32" viewBox="0 0 32 32" fill="none" xmlns="http://www.w3.org/2000/svg">
  <!-- Background gradient -->
  <defs>
    <linearGradient id="bg" x1="0" y1="0" x2="32" y2="32" gradientUnits="userSpaceOnUse">
      <stop offset="0" stop-color="#3b82f6"/>
      <stop offset="1" stop-color="#2563eb"/>
    </linearGradient>
  </defs>
  
  <!-- Rounded square background -->
  <rect width="32" height="32" rx="6" fill="url(#bg)"/>
  
  <!-- AI Chat icon -->
  <g transform="translate(6, 6)">
    <!-- Speech bubble -->
    <path d="M 2 0 H 18 C 19.1046 0 20 0.89543 20 2 V 14 C 20 15.1046 19.1046 16 18 16 H 6 L 2 20 V 2 C 2 0.89543 2.89543 0 2 0 Z" fill="white" fill-opacity="0.95"/>
    
    <!-- AI sparkle/stars icon -->
    <g transform="translate(5, 4)">
      <!-- Top sparkle -->
      <circle cx="5" cy="2" r="1" fill="#3b82f6"/>
      <path d="M 5 0.5 L 5 3.5 M 3.5 2 L 6.5 2" stroke="#3b82f6" stroke-width="0.8" stroke-linecap="round"/>
      
      <!-- Bottom left sparkle -->
      <circle cx="2.5" cy="6.5" r="0.7" fill="#2563eb"/>
      <path d="M 2.5 5.3 L 2.5 7.7 M 1.3 6.5 L 3.7 6.5" stroke="#2563eb" stroke-width="0.6" stroke-linecap="round"/>
      
      <!-- Bottom right sparkle -->
      <circle cx="7.5" cy="6.5" r="0.7" fill="#2563eb"/>
      <path d="M 7.5 5.3 L 7.5 7.7 M 6.3 6.5 L 8.7 6.5" stroke="#2563eb" stroke-width="0.6" stroke-linecap="round"/>
    </g>
  </g>
</svg>
